<svg width="45" height="45" viewBox="0 0 45 45" fill="none" xmlns="http://www.w3.org/2000/svg">
<circle cx="22.5" cy="22.5" r="22.5" fill="#FEB4CF"/>
<path fill-rule="evenodd" clip-rule="evenodd" d="M24 19C24 21.7614 21.7614 24 19 24C16.2386 24 14 21.7614 14 19C14 16.2386 16.2386 14 19 14C21.7614 14 24 16.2386 24 19ZM23.8378 27.754C22.4042 28.548 20.7549 29 19 29C13.4772 29 9 24.5228 9 19C9 13.4772 13.4772 9 19 9C24.5228 9 29 13.4772 29 19C29 20.9485 28.4427 22.7667 27.4789 24.3042L36.3448 32.2835L33 36L23.8378 27.754Z" fill="white"/>
</svg>
